<?xml version="1.0" encoding="utf-8"?>
<!-- Generator: Adobe Illustrator 16.0.0, SVG Export Plug-In . SVG Version: 6.00 Build 0)  -->
<!DOCTYPE svg PUBLIC "-//W3C//DTD SVG 1.1//EN" "http://www.w3.org/Graphics/SVG/1.1/DTD/svg11.dtd" [
	<!ENTITY ns_extend "http://ns.adobe.com/Extensibility/1.0/">
	<!ENTITY ns_ai "http://ns.adobe.com/AdobeIllustrator/10.0/">
	<!ENTITY ns_graphs "http://ns.adobe.com/Graphs/1.0/">
	<!ENTITY ns_vars "http://ns.adobe.com/Variables/1.0/">
	<!ENTITY ns_imrep "http://ns.adobe.com/ImageReplacement/1.0/">
	<!ENTITY ns_sfw "http://ns.adobe.com/SaveForWeb/1.0/">
	<!ENTITY ns_custom "http://ns.adobe.com/GenericCustomNamespace/1.0/">
	<!ENTITY ns_adobe_xpath "http://ns.adobe.com/XPath/1.0/">
]>
<svg version="1.1" id="Layer_1" xmlns:x="&ns_extend;" xmlns:i="&ns_ai;" xmlns:graph="&ns_graphs;"
	 xmlns="http://www.w3.org/2000/svg" xmlns:xlink="http://www.w3.org/1999/xlink" x="0px" y="0px" width="54px" height="54px"
	 viewBox="0 0 54 54" style="enable-background:new 0 0 54 54;" xml:space="preserve">
<style type="text/css">
<![CDATA[
	.st0{fill:none;stroke:#FFFFFF;stroke-miterlimit:10;}
	.st1{fill:#FFFFFF;}
	.st2{fill:none;}
]]>
</style>
<metadata>
	<sfw  xmlns="&ns_sfw;">
		<slices></slices>
		<sliceSourceBounds  width="16383" height="16383" y="-8219" x="-8164" bottomLeftOrigin="true"></sliceSourceBounds>
	</sfw>
</metadata>
<polygon class="st1" points="39.3,20.52 36.45,17.81 32.7,14.25 32.7,14.25 31.95,13.54 28.43,17.24 29.19,17.96 6.21,42.17 
	7.66,43.55 3.9,47.51 3.69,47.3 3.21,47.8 6.6,51.01 7.07,50.51 6.85,50.31 10.61,46.35 12.06,47.73 35.04,23.51 35.79,24.22 "/>
<path class="st1" d="M46.42,2.22c0,0,0,2.25,0.44,2.67c0.41,0.4,2.72,0.45,2.72,0.45s-2.33-0.03-2.72,0.33
	c-0.42,0.39-0.44,2.66-0.44,2.66s0.02-2.29-0.41-2.66c-0.42-0.36-2.73-0.34-2.73-0.34s2.34-0.02,2.73-0.44S46.42,2.22,46.42,2.22z"
	/>
<rect x="24.82" y="33.87" transform="matrix(0.6914 -0.7225 0.7225 0.6914 -17.9614 29.6964)" class="st1" width="1.92" height="4"/>
<line class="st2" x1="26.44" y1="37.5" x2="18.81" y2="54"/>
<line class="st0" x1="26.44" y1="36.48" x2="20.47" y2="55.41"/>
<line class="st0" x1="26.44" y1="36.48" x2="26.44" y2="54.75"/>
<line id="XMLID_1_" class="st0" x1="26.44" y1="36.48" x2="32.84" y2="55.25"/>
</svg>
