<?xml version="1.0" encoding="utf-8"?>
<!-- Generator: Adobe Illustrator 16.0.0, SVG Export Plug-In . SVG Version: 6.00 Build 0)  -->
<!DOCTYPE svg PUBLIC "-//W3C//DTD SVG 1.1//EN" "http://www.w3.org/Graphics/SVG/1.1/DTD/svg11.dtd" [
	<!ENTITY ns_extend "http://ns.adobe.com/Extensibility/1.0/">
	<!ENTITY ns_ai "http://ns.adobe.com/AdobeIllustrator/10.0/">
	<!ENTITY ns_graphs "http://ns.adobe.com/Graphs/1.0/">
	<!ENTITY ns_vars "http://ns.adobe.com/Variables/1.0/">
	<!ENTITY ns_imrep "http://ns.adobe.com/ImageReplacement/1.0/">
	<!ENTITY ns_sfw "http://ns.adobe.com/SaveForWeb/1.0/">
	<!ENTITY ns_custom "http://ns.adobe.com/GenericCustomNamespace/1.0/">
	<!ENTITY ns_adobe_xpath "http://ns.adobe.com/XPath/1.0/">
]>
<svg version="1.1" id="Layer_1" xmlns:x="&ns_extend;" xmlns:i="&ns_ai;" xmlns:graph="&ns_graphs;"
	 xmlns="http://www.w3.org/2000/svg" xmlns:xlink="http://www.w3.org/1999/xlink" x="0px" y="0px" width="54px" height="54px"
	 viewBox="0 0 54 54" style="enable-background:new 0 0 54 54;" xml:space="preserve">
<style type="text/css">
<![CDATA[
	.st0{fill:#FFFFFF;}
	.st1{fill:none;stroke:#FFFFFF;stroke-width:2;stroke-linecap:square;stroke-miterlimit:10;}
]]>
</style>
<metadata>
	<sfw  xmlns="&ns_sfw;">
		<slices></slices>
		<sliceSourceBounds  width="234" height="137.2" y="-144" x="0" bottomLeftOrigin="true"></sliceSourceBounds>
	</sfw>
</metadata>
<g>
	<path class="st0" d="M17.5,18.6c-1.2-0.5-2.2-0.7-3.5-0.7c-2.6,0-3.7,1.4-3.7,3.7v1.2h6.2v2.6h-6.2v13.1H7.2V25.4H2.8V23l4.4-0.2
		v-1.1c0-3.7,2-6.3,6.5-6.3c1.6,0,3.1,0.3,4.6,0.9L17.5,18.6z"/>
	<path class="st0" d="M25.3,29.6c0-6.1,2.7-11,7.1-14.5l1.8,1.5c-4.2,3.6-6.1,7.7-6.1,13s1.9,9.4,6.1,13l-1.8,1.5
		C28,40.6,25.3,35.7,25.3,29.6z"/>
	<path class="st0" d="M41.9,42.6c4.2-3.6,6.1-7.7,6.1-13s-1.9-9.4-6.1-13l1.8-1.5c4.4,3.5,7.1,8.4,7.1,14.5s-2.7,11-7.1,14.5
		L41.9,42.6z"/>
</g>
</svg>
