<?xml version="1.0" encoding="utf-8"?>
<!-- Generator: Adobe Illustrator 16.0.0, SVG Export Plug-In . SVG Version: 6.00 Build 0)  -->
<!DOCTYPE svg PUBLIC "-//W3C//DTD SVG 1.1//EN" "http://www.w3.org/Graphics/SVG/1.1/DTD/svg11.dtd" [
	<!ENTITY ns_extend "http://ns.adobe.com/Extensibility/1.0/">
	<!ENTITY ns_ai "http://ns.adobe.com/AdobeIllustrator/10.0/">
	<!ENTITY ns_graphs "http://ns.adobe.com/Graphs/1.0/">
	<!ENTITY ns_vars "http://ns.adobe.com/Variables/1.0/">
	<!ENTITY ns_imrep "http://ns.adobe.com/ImageReplacement/1.0/">
	<!ENTITY ns_sfw "http://ns.adobe.com/SaveForWeb/1.0/">
	<!ENTITY ns_custom "http://ns.adobe.com/GenericCustomNamespace/1.0/">
	<!ENTITY ns_adobe_xpath "http://ns.adobe.com/XPath/1.0/">
]>
<svg version="1.1" id="Layer_1" xmlns:x="&ns_extend;" xmlns:i="&ns_ai;" xmlns:graph="&ns_graphs;"
	 xmlns="http://www.w3.org/2000/svg" xmlns:xlink="http://www.w3.org/1999/xlink" x="0px" y="0px" width="54px" height="54px"
	 viewBox="0 0 54 54" style="enable-background:new 0 0 54 54;" xml:space="preserve">
<style type="text/css">
<![CDATA[
	.st0{fill:#FFFFFF;}
]]>
</style>
<metadata>
	<sfw  xmlns="&ns_sfw;">
		<slices></slices>
		<sliceSourceBounds  width="27.973" height="51.811" bottomLeftOrigin="true" x="13.225" y="-53.15"></sliceSourceBounds>
	</sfw>
</metadata>
<g>
	<path class="st0" d="M20.648,10.596l10.901,13.751l-0.05,0.25l-13.001,14h13.851c3.851,0,5.15-2.75,6.15-6.35
		c0.565-0.08,1.215,0,1.65,0.25c-0.26,2.779-0.54,5.555-1.3,8.25H17.948c-1.4,0-3.55,0.1-3.55,0.1c-0.19-0.324-0.16-1.319,0-1.649
		c0.55-0.15,1-0.5,1.45-1.051l11.051-12.851l0.1-0.05l-9.75-13.301c-0.86-1.17-1.6-1.7-2.8-1.9c-0.175-0.3-0.18-1.305,0-1.6
		l5.05,0.05h18.651c0.63,2.95,0.835,5.345,1.05,7.75c-0.405,0.185-0.985,0.35-1.65,0.25c-1.1-3.45-1.85-5.9-5.6-5.9H20.648z"/>
</g>
<g>
	<path class="st0" d="M15.068,44.556c0.075-0.33,0.105-0.585,0.105-0.75c0-0.33-0.12-0.42-0.315-0.42l-0.465-0.03
		c-0.06,0-0.075-0.03-0.075-0.075l0.045-0.36c0.615-0.045,1.695-0.239,2.1-0.39c0.135,0,0.18,0.045,0.18,0.15
		c0,0-0.15,0.6-0.375,1.574l-1.08,4.665c0.315,0,0.63-0.24,0.885-0.46l0.6-0.515c1.08-0.96,1.995-1.53,2.475-1.53
		c0.405,0,0.735,0.105,0.735,0.525c0,0.465-0.48,0.75-0.69,0.75c-0.51,0-0.45-0.21-0.84-0.21c-0.3,0-0.705,0.27-1.44,0.93
		l-0.78,0.69v0.06c0.495,0.135,0.589,0.339,0.825,0.81c0.21,0.42,0.405,1.005,0.825,1.83c0.156,0.307,0.253,0.57,0.54,0.57
		c0.165,0,0.48-0.285,0.78-0.72c0.165,0,0.225,0.074,0.33,0.194c-0.48,0.84-1.005,1.306-1.515,1.306
		c-0.615,0-0.99-0.466-1.479-1.545c-0.306-0.679-0.471-1.44-0.741-1.92c-0.075-0.136-0.18-0.245-0.294-0.245
		c-0.111,0-0.216,0.005-0.336,0.05l-0.542,2.43c-0.119,0.555-0.119,1.23-0.688,1.23c-0.477,0-0.613-0.158-0.613-0.408
		c0-0.147,0.118-0.522,0.19-0.822L15.068,44.556z"/>
	<path class="st0" d="M23.978,48.365c-0.135,0-0.21-0.12-0.21-0.24c0-0.225,0.18-0.51,0.36-0.51h5.88
		c0.149,0,0.209,0.135,0.209,0.255c0,0.15-0.194,0.495-0.389,0.495H23.978z M23.978,50.855c-0.135,0-0.21-0.12-0.21-0.24
		c0-0.226,0.18-0.51,0.36-0.51h5.88c0.149,0,0.209,0.135,0.209,0.255c0,0.149-0.194,0.495-0.389,0.495H23.978z"/>
	<path class="st0" d="M36.768,52.52c-0.821-0.817-1.314-2.33-1.314-3.93c0-2.97,1.41-4.739,2.895-4.739
		c0.811,0,1.438,0.454,1.83,0.975c0.66,0.87,1.02,2.146,1.02,3.63c0,3.525-1.754,4.695-2.91,4.695
		C37.707,53.15,37.193,52.946,36.768,52.52z M36.758,48.755c0,1.306,0.15,3.87,1.545,3.87c0.27,0,1.004-0.135,1.334-1.365
		c0.211-0.765,0.256-1.71,0.256-3.09c0-2.01-0.404-3.149-0.869-3.54c-0.182-0.164-0.422-0.255-0.676-0.255
		C37.672,44.375,36.758,45.065,36.758,48.755z"/>
</g>
<g>
	<path class="st0" d="M30.158,6.695c-1.274,0-2.31-1.035-2.984-2.025c-0.615,0.87-1.89,2.04-3,2.04c-1.095,0-2.16-0.75-2.16-2.4
		c0-1.425,0.99-2.97,2.564-2.97c1.185,0,2.355,1.005,2.97,1.995c0.705-0.854,1.83-1.995,3.015-1.995c1.38,0,2.13,1.05,2.13,2.385
		C32.693,5.165,31.703,6.695,30.158,6.695z M24.399,1.97c-0.96,0-1.44,0.721-1.44,1.665c0,0.99,0.555,2.22,1.62,2.22
		c0.765,0,1.875-0.975,2.25-1.59C26.439,3.5,25.314,1.97,24.399,1.97z M30.129,2.135c-0.766,0-1.846,1.021-2.235,1.636
		c0.495,0.689,1.591,2.234,2.46,2.234c0.96,0,1.426-0.72,1.426-1.635C31.779,3.47,31.224,2.135,30.129,2.135z"/>
</g>
</svg>
