<?xml version="1.0" encoding="utf-8"?>
<!-- Generator: Adobe Illustrator 16.0.0, SVG Export Plug-In . SVG Version: 6.00 Build 0)  -->
<!DOCTYPE svg PUBLIC "-//W3C//DTD SVG 1.1//EN" "http://www.w3.org/Graphics/SVG/1.1/DTD/svg11.dtd" [
	<!ENTITY ns_extend "http://ns.adobe.com/Extensibility/1.0/">
	<!ENTITY ns_ai "http://ns.adobe.com/AdobeIllustrator/10.0/">
	<!ENTITY ns_graphs "http://ns.adobe.com/Graphs/1.0/">
	<!ENTITY ns_vars "http://ns.adobe.com/Variables/1.0/">
	<!ENTITY ns_imrep "http://ns.adobe.com/ImageReplacement/1.0/">
	<!ENTITY ns_sfw "http://ns.adobe.com/SaveForWeb/1.0/">
	<!ENTITY ns_custom "http://ns.adobe.com/GenericCustomNamespace/1.0/">
	<!ENTITY ns_adobe_xpath "http://ns.adobe.com/XPath/1.0/">
]>
<svg version="1.1" id="Layer_1" xmlns:x="&ns_extend;" xmlns:i="&ns_ai;" xmlns:graph="&ns_graphs;"
	 xmlns="http://www.w3.org/2000/svg" xmlns:xlink="http://www.w3.org/1999/xlink" x="0px" y="0px" width="54px" height="54px"
	 viewBox="0 0 54 54" style="enable-background:new 0 0 54 54;" xml:space="preserve">
<style type="text/css">
<![CDATA[
	.st0{fill:#FFFFFF;}
]]>
</style>
<metadata>
	<sfw  xmlns="&ns_sfw;">
		<slices></slices>
		<sliceSourceBounds  width="48.9" height="52.8" y="-53.8" x="2.5" bottomLeftOrigin="true"></sliceSourceBounds>
	</sfw>
</metadata>
<g>
	<path class="st0" d="M4.6,40.4c3.2,5.8,7.6,9.4,12.3,9.4c4.8,0,6.6-3.1,6.6-6.2c0-3.2-1.6-5.1-3.6-6.7c-2.1,0.9-4.6,1.5-7.3,1.7
		l-2.4-3.8c8.1-0.9,11.7-3,11.7-7.5c0-2.7-1.9-4.8-5.8-4.8c-4.3,0-7,2.2-7.6,2.4L5.4,21c0.6-0.2,3.3-2.4,7.8-2.4
		c6.8,0,12.5,5.7,12.5,10.8c0,2.9-1.3,4.9-3.8,6.4c1.5,0.9,3.2,2.2,5.6,2.2c2.6,0,3.9-1.2,4.8-3.3c2.5-5.9,2-14.1,8.2-14.1
		c4.5,0,10.9,6,10.9,15.1c0,8.1-5.7,15.1-13.5,15.1h-2.1l-1.4-2.4C43,47.3,47.5,40.9,47.5,33c0-5.5-2.9-8.9-5.5-8.9
		c-5.9,0-2.6,16.9-11.8,16.9c-2.7,0-4.2-0.9-4.4-1.1c0.8,0.9,1.7,2.8,1.7,5.3c0,4.5-3.2,8.6-9.5,8.6c-6.2,0-11.7-4.3-15.7-11.7
		L4.6,40.4z M16.7,8c2.5,2.9,6.1,4.6,9.9,4.6c3.9,0,7.5-1.7,9.8-5l3.2,2.6c-2.7,3.7-6.8,5.8-11.5,5.8c-5.1,0-9.9-2.6-13.1-6.5
		L16.7,8z M30.8,4.6l-3.6,3.6l-3.7-3.6L27.1,1L30.8,4.6z"/>
</g>
</svg>
